<svg xmlns="http://www.w3.org/2000/svg" viewBox="0 0 400 400" width="400" height="400">
  <rect width="400" height="400" fill="#ffffff"/>
  <ellipse cx="200" cy="368" rx="120" ry="11" fill="#e0e0e0"/>

  <!-- Board case / border — slightly angled perspective -->
  <rect x="60" y="65" width="280" height="290" rx="8" fill="#37474f"/>
  <rect x="68" y="73" width="264" height="274" rx="4" fill="#455a64"/>

  <!-- Hinge line in middle -->
  <rect x="60" y="205" width="280" height="6" rx="2" fill="#263238"/>

  <!-- Top half board squares (4 rows) -->
  <rect x="72" y="77" width="256" height="128" fill="#f0d9b5"/>
  <!-- Dark squares top half -->
  <rect x="72"  y="77"  width="32" height="32" fill="#b58863"/>
  <rect x="136" y="77"  width="32" height="32" fill="#b58863"/>
  <rect x="200" y="77"  width="32" height="32" fill="#b58863"/>
  <rect x="264" y="77"  width="32" height="32" fill="#b58863"/>
  <rect x="104" y="109" width="32" height="32" fill="#b58863"/>
  <rect x="168" y="109" width="32" height="32" fill="#b58863"/>
  <rect x="232" y="109" width="32" height="32" fill="#b58863"/>
  <rect x="296" y="109" width="32" height="32" fill="#b58863"/>
  <rect x="72"  y="141" width="32" height="32" fill="#b58863"/>
  <rect x="136" y="141" width="32" height="32" fill="#b58863"/>
  <rect x="200" y="141" width="32" height="32" fill="#b58863"/>
  <rect x="264" y="141" width="32" height="32" fill="#b58863"/>
  <rect x="104" y="173" width="32" height="32" fill="#b58863"/>
  <rect x="168" y="173" width="32" height="32" fill="#b58863"/>
  <rect x="232" y="173" width="32" height="32" fill="#b58863"/>
  <rect x="296" y="173" width="32" height="32" fill="#b58863"/>

  <!-- Bottom half board squares (4 rows) -->
  <rect x="72" y="211" width="256" height="128" fill="#f0d9b5"/>
  <rect x="104" y="211" width="32" height="32" fill="#b58863"/>
  <rect x="168" y="211" width="32" height="32" fill="#b58863"/>
  <rect x="232" y="211" width="32" height="32" fill="#b58863"/>
  <rect x="296" y="211" width="32" height="32" fill="#b58863"/>
  <rect x="72"  y="243" width="32" height="32" fill="#b58863"/>
  <rect x="136" y="243" width="32" height="32" fill="#b58863"/>
  <rect x="200" y="243" width="32" height="32" fill="#b58863"/>
  <rect x="264" y="243" width="32" height="32" fill="#b58863"/>
  <rect x="104" y="275" width="32" height="32" fill="#b58863"/>
  <rect x="168" y="275" width="32" height="32" fill="#b58863"/>
  <rect x="232" y="275" width="32" height="32" fill="#b58863"/>
  <rect x="296" y="275" width="32" height="32" fill="#b58863"/>
  <rect x="72"  y="307" width="32" height="32" fill="#b58863"/>
  <rect x="136" y="307" width="32" height="32" fill="#b58863"/>
  <rect x="200" y="307" width="32" height="32" fill="#b58863"/>
  <rect x="264" y="307" width="32" height="32" fill="#b58863"/>

  <!-- Magnetic piece indicators — small circles on squares -->
  <circle cx="88"  cy="93"  r="10" fill="#1a1a1a" opacity="0.85"/>
  <circle cx="120" cy="93"  r="10" fill="#1a1a1a" opacity="0.85"/>
  <circle cx="152" cy="93"  r="10" fill="#1a1a1a" opacity="0.85"/>
  <circle cx="184" cy="93"  r="10" fill="#1a1a1a" opacity="0.85"/>
  <circle cx="216" cy="93"  r="10" fill="#1a1a1a" opacity="0.85"/>
  <circle cx="248" cy="93"  r="10" fill="#1a1a1a" opacity="0.85"/>
  <circle cx="280" cy="93"  r="10" fill="#1a1a1a" opacity="0.85"/>
  <circle cx="312" cy="93"  r="10" fill="#1a1a1a" opacity="0.85"/>
  <circle cx="88"  cy="323" r="10" fill="#f5f5f5" stroke="#bbb" stroke-width="1"/>
  <circle cx="120" cy="323" r="10" fill="#f5f5f5" stroke="#bbb" stroke-width="1"/>
  <circle cx="152" cy="323" r="10" fill="#f5f5f5" stroke="#bbb" stroke-width="1"/>
  <circle cx="184" cy="323" r="10" fill="#f5f5f5" stroke="#bbb" stroke-width="1"/>
  <circle cx="216" cy="323" r="10" fill="#f5f5f5" stroke="#bbb" stroke-width="1"/>
  <circle cx="248" cy="323" r="10" fill="#f5f5f5" stroke="#bbb" stroke-width="1"/>
  <circle cx="280" cy="323" r="10" fill="#f5f5f5" stroke="#bbb" stroke-width="1"/>
  <circle cx="312" cy="323" r="10" fill="#f5f5f5" stroke="#bbb" stroke-width="1"/>

  <!-- Magnet symbol badge -->
  <rect x="155" y="195" width="90" height="18" rx="9" fill="#e53935"/>
  <text x="200" y="208" text-anchor="middle" font-family="Arial,sans-serif" font-size="10" fill="#fff" font-weight="bold">🧲 MAGNETIC</text>

  <text x="200" y="390" text-anchor="middle" font-family="Inter,Arial,sans-serif" font-size="14" fill="#888" font-weight="500">Magnetic Travel Chess Set</text>
</svg>
