<svg xmlns="http://www.w3.org/2000/svg" viewBox="0 0 400 400" width="400" height="400">
  <rect width="400" height="400" fill="#ffffff"/>
  <ellipse cx="200" cy="370" rx="130" ry="12" fill="#e0e0e0"/>

  <!-- Board border / frame -->
  <rect x="50" y="50" width="300" height="300" rx="4" fill="#5d4037"/>
  <!-- Board squares -->
  <rect x="60" y="60" width="280" height="280" fill="#f0d9b5"/>

  <!-- Dark squares — 8x8 checkerboard, each square 35x35 -->
  <!-- Row 1 (top) -->
  <rect x="60"  y="60"  width="35" height="35" fill="#b58863"/>
  <rect x="130" y="60"  width="35" height="35" fill="#b58863"/>
  <rect x="200" y="60"  width="35" height="35" fill="#b58863"/>
  <rect x="270" y="60"  width="35" height="35" fill="#b58863"/>
  <!-- Row 2 -->
  <rect x="95"  y="95"  width="35" height="35" fill="#b58863"/>
  <rect x="165" y="95"  width="35" height="35" fill="#b58863"/>
  <rect x="235" y="95"  width="35" height="35" fill="#b58863"/>
  <rect x="305" y="95"  width="35" height="35" fill="#b58863"/>
  <!-- Row 3 -->
  <rect x="60"  y="130" width="35" height="35" fill="#b58863"/>
  <rect x="130" y="130" width="35" height="35" fill="#b58863"/>
  <rect x="200" y="130" width="35" height="35" fill="#b58863"/>
  <rect x="270" y="130" width="35" height="35" fill="#b58863"/>
  <!-- Row 4 -->
  <rect x="95"  y="165" width="35" height="35" fill="#b58863"/>
  <rect x="165" y="165" width="35" height="35" fill="#b58863"/>
  <rect x="235" y="165" width="35" height="35" fill="#b58863"/>
  <rect x="305" y="165" width="35" height="35" fill="#b58863"/>
  <!-- Row 5 -->
  <rect x="60"  y="200" width="35" height="35" fill="#b58863"/>
  <rect x="130" y="200" width="35" height="35" fill="#b58863"/>
  <rect x="200" y="200" width="35" height="35" fill="#b58863"/>
  <rect x="270" y="200" width="35" height="35" fill="#b58863"/>
  <!-- Row 6 -->
  <rect x="95"  y="235" width="35" height="35" fill="#b58863"/>
  <rect x="165" y="235" width="35" height="35" fill="#b58863"/>
  <rect x="235" y="235" width="35" height="35" fill="#b58863"/>
  <rect x="305" y="235" width="35" height="35" fill="#b58863"/>
  <!-- Row 7 -->
  <rect x="60"  y="270" width="35" height="35" fill="#b58863"/>
  <rect x="130" y="270" width="35" height="35" fill="#b58863"/>
  <rect x="200" y="270" width="35" height="35" fill="#b58863"/>
  <rect x="270" y="270" width="35" height="35" fill="#b58863"/>
  <!-- Row 8 -->
  <rect x="95"  y="305" width="35" height="35" fill="#b58863"/>
  <rect x="165" y="305" width="35" height="35" fill="#b58863"/>
  <rect x="235" y="305" width="35" height="35" fill="#b58863"/>
  <rect x="305" y="305" width="35" height="35" fill="#b58863"/>

  <!-- Black pieces row (top) — simplified silhouettes -->
  <!-- Rook -->
  <rect x="63" y="63" width="29" height="29" rx="2" fill="none"/>
  <rect x="66" y="72" width="23" height="17" rx="1" fill="#1a1a1a"/>
  <rect x="64" y="63" width="7" height="9" rx="1" fill="#1a1a1a"/>
  <rect x="74" y="63" width="7" height="9" rx="1" fill="#1a1a1a"/>
  <rect x="84" y="63" width="7" height="9" rx="1" fill="#1a1a1a"/>
  <!-- Knight -->
  <ellipse cx="112" cy="77" rx="11" ry="13" fill="#1a1a1a"/>
  <rect x="104" y="82" width="16" height="8" rx="2" fill="#1a1a1a"/>
  <!-- Bishop -->
  <ellipse cx="147" cy="75" rx="8" ry="11" fill="#1a1a1a"/>
  <circle cx="147" cy="65" r="4" fill="#1a1a1a"/>
  <rect x="140" y="83" width="14" height="6" rx="2" fill="#1a1a1a"/>
  <!-- Queen -->
  <ellipse cx="182" cy="74" rx="10" ry="12" fill="#1a1a1a"/>
  <circle cx="182" cy="63" r="5" fill="#1a1a1a"/>
  <rect x="173" y="83" width="18" height="6" rx="2" fill="#1a1a1a"/>
  <!-- King -->
  <ellipse cx="217" cy="74" rx="10" ry="12" fill="#1a1a1a"/>
  <rect x="213" y="62" width="8" height="3" rx="1" fill="#1a1a1a"/>
  <rect x="215" y="60" width="4" height="7" rx="1" fill="#1a1a1a"/>
  <rect x="208" y="83" width="18" height="6" rx="2" fill="#1a1a1a"/>
  <!-- Bishop -->
  <ellipse cx="252" cy="75" rx="8" ry="11" fill="#1a1a1a"/>
  <circle cx="252" cy="65" r="4" fill="#1a1a1a"/>
  <rect x="245" y="83" width="14" height="6" rx="2" fill="#1a1a1a"/>
  <!-- Knight -->
  <ellipse cx="287" cy="77" rx="11" ry="13" fill="#1a1a1a"/>
  <rect x="279" y="82" width="16" height="8" rx="2" fill="#1a1a1a"/>
  <!-- Rook -->
  <rect x="301" y="72" width="23" height="17" rx="1" fill="#1a1a1a"/>
  <rect x="299" y="63" width="7" height="9" rx="1" fill="#1a1a1a"/>
  <rect x="309" y="63" width="7" height="9" rx="1" fill="#1a1a1a"/>
  <rect x="319" y="63" width="7" height="9" rx="1" fill="#1a1a1a"/>

  <!-- Black pawns row 2 -->
  <circle cx="77"  cy="104" r="9" fill="#1a1a1a"/><rect x="70" y="111" width="14" height="6" rx="2" fill="#1a1a1a"/>
  <circle cx="112" cy="104" r="9" fill="#1a1a1a"/><rect x="105" y="111" width="14" height="6" rx="2" fill="#1a1a1a"/>
  <circle cx="147" cy="104" r="9" fill="#1a1a1a"/><rect x="140" y="111" width="14" height="6" rx="2" fill="#1a1a1a"/>
  <circle cx="182" cy="104" r="9" fill="#1a1a1a"/><rect x="175" y="111" width="14" height="6" rx="2" fill="#1a1a1a"/>
  <circle cx="217" cy="104" r="9" fill="#1a1a1a"/><rect x="210" y="111" width="14" height="6" rx="2" fill="#1a1a1a"/>
  <circle cx="252" cy="104" r="9" fill="#1a1a1a"/><rect x="245" y="111" width="14" height="6" rx="2" fill="#1a1a1a"/>
  <circle cx="287" cy="104" r="9" fill="#1a1a1a"/><rect x="280" y="111" width="14" height="6" rx="2" fill="#1a1a1a"/>
  <circle cx="322" cy="104" r="9" fill="#1a1a1a"/><rect x="315" y="111" width="14" height="6" rx="2" fill="#1a1a1a"/>

  <!-- White pawns row 7 -->
  <circle cx="77"  cy="284" r="9" fill="#f5f5f5" stroke="#ccc" stroke-width="1"/><rect x="70" y="291" width="14" height="6" rx="2" fill="#e0e0e0"/>
  <circle cx="112" cy="284" r="9" fill="#f5f5f5" stroke="#ccc" stroke-width="1"/><rect x="105" y="291" width="14" height="6" rx="2" fill="#e0e0e0"/>
  <circle cx="147" cy="284" r="9" fill="#f5f5f5" stroke="#ccc" stroke-width="1"/><rect x="140" y="291" width="14" height="6" rx="2" fill="#e0e0e0"/>
  <circle cx="182" cy="284" r="9" fill="#f5f5f5" stroke="#ccc" stroke-width="1"/><rect x="175" y="291" width="14" height="6" rx="2" fill="#e0e0e0"/>
  <circle cx="217" cy="284" r="9" fill="#f5f5f5" stroke="#ccc" stroke-width="1"/><rect x="210" y="291" width="14" height="6" rx="2" fill="#e0e0e0"/>
  <circle cx="252" cy="284" r="9" fill="#f5f5f5" stroke="#ccc" stroke-width="1"/><rect x="245" y="291" width="14" height="6" rx="2" fill="#e0e0e0"/>
  <circle cx="287" cy="284" r="9" fill="#f5f5f5" stroke="#ccc" stroke-width="1"/><rect x="280" y="291" width="14" height="6" rx="2" fill="#e0e0e0"/>
  <circle cx="322" cy="284" r="9" fill="#f5f5f5" stroke="#ccc" stroke-width="1"/><rect x="315" y="291" width="14" height="6" rx="2" fill="#e0e0e0"/>

  <!-- White pieces row 8 -->
  <rect x="66" y="312" width="23" height="17" rx="1" fill="#f0f0f0" stroke="#bbb" stroke-width="1"/>
  <rect x="64" y="305" width="7" height="9" rx="1" fill="#f0f0f0" stroke="#bbb" stroke-width="1"/>
  <rect x="74" y="305" width="7" height="9" rx="1" fill="#f0f0f0" stroke="#bbb" stroke-width="1"/>
  <rect x="84" y="305" width="7" height="9" rx="1" fill="#f0f0f0" stroke="#bbb" stroke-width="1"/>
  <ellipse cx="112" cy="317" rx="11" ry="13" fill="#f0f0f0" stroke="#bbb" stroke-width="1"/>
  <rect x="104" y="322" width="16" height="8" rx="2" fill="#e8e8e8"/>
  <ellipse cx="147" cy="315" rx="8" ry="11" fill="#f0f0f0" stroke="#bbb" stroke-width="1"/>
  <circle cx="147" cy="305" r="4" fill="#f0f0f0" stroke="#bbb" stroke-width="1"/>
  <rect x="140" y="323" width="14" height="6" rx="2" fill="#e8e8e8"/>
  <ellipse cx="182" cy="314" rx="10" ry="12" fill="#f0f0f0" stroke="#bbb" stroke-width="1"/>
  <circle cx="182" cy="303" r="5" fill="#f0f0f0" stroke="#bbb" stroke-width="1"/>
  <rect x="173" y="323" width="18" height="6" rx="2" fill="#e8e8e8"/>
  <ellipse cx="217" cy="314" rx="10" ry="12" fill="#f0f0f0" stroke="#bbb" stroke-width="1"/>
  <rect x="213" y="302" width="8" height="3" rx="1" fill="#e8e8e8"/>
  <rect x="215" y="300" width="4" height="7" rx="1" fill="#e8e8e8"/>
  <rect x="208" y="323" width="18" height="6" rx="2" fill="#e8e8e8"/>
  <ellipse cx="252" cy="315" rx="8" ry="11" fill="#f0f0f0" stroke="#bbb" stroke-width="1"/>
  <circle cx="252" cy="305" r="4" fill="#f0f0f0" stroke="#bbb" stroke-width="1"/>
  <rect x="245" y="323" width="14" height="6" rx="2" fill="#e8e8e8"/>
  <ellipse cx="287" cy="317" rx="11" ry="13" fill="#f0f0f0" stroke="#bbb" stroke-width="1"/>
  <rect x="279" y="322" width="16" height="8" rx="2" fill="#e8e8e8"/>
  <rect x="301" y="312" width="23" height="17" rx="1" fill="#f0f0f0" stroke="#bbb" stroke-width="1"/>
  <rect x="299" y="305" width="7" height="9" rx="1" fill="#f0f0f0" stroke="#bbb" stroke-width="1"/>
  <rect x="309" y="305" width="7" height="9" rx="1" fill="#f0f0f0" stroke="#bbb" stroke-width="1"/>
  <rect x="319" y="305" width="7" height="9" rx="1" fill="#f0f0f0" stroke="#bbb" stroke-width="1"/>

  <text x="200" y="392" text-anchor="middle" font-family="Inter,Arial,sans-serif" font-size="14" fill="#888" font-weight="500">Wooden Chess Board Set</text>
</svg>
