<svg xmlns="http://www.w3.org/2000/svg" viewBox="0 0 400 400" width="400" height="400">
  <rect width="400" height="400" fill="#ffffff"/>
  <ellipse cx="200" cy="345" rx="95" ry="13" fill="#e8e8e8"/>

  <!-- Body — dark charcoal -->
  <polygon points="60,140 200,60 340,140 340,280 200,360 60,280" fill="#212121"/>

  <!-- FRONT — blue stickerless tiles -->
  <polygon points="67,145 103,125 103,165 67,185" fill="#1565c0"/><polygon points="69,147 101,128 101,162 69,182" fill="#1976d2"/>
  <polygon points="112,122 148,103 148,142 112,162" fill="#1565c0"/><polygon points="114,124 146,106 146,139 114,159" fill="#1976d2"/>
  <polygon points="157,100 193,81 193,119 157,139" fill="#1565c0"/><polygon points="159,102 191,84 191,116 159,136" fill="#1976d2"/>
  <polygon points="67,197 103,178 103,217 67,237" fill="#1565c0"/><polygon points="69,199 101,181 101,214 69,234" fill="#1976d2"/>
  <polygon points="112,174 148,155 148,194 112,214" fill="#1565c0"/><polygon points="114,176 146,158 146,191 114,211" fill="#1976d2"/>
  <polygon points="157,152 193,133 193,171 157,191" fill="#1565c0"/><polygon points="159,154 191,136 191,168 159,188" fill="#1976d2"/>
  <polygon points="67,249 103,230 103,269 67,289" fill="#1565c0"/><polygon points="69,251 101,233 101,266 69,286" fill="#1976d2"/>
  <polygon points="112,227 148,208 148,247 112,267" fill="#1565c0"/><polygon points="114,229 146,211 146,244 114,264" fill="#1976d2"/>
  <polygon points="157,205 193,186 193,224 157,244" fill="#1565c0"/><polygon points="159,207 191,189 191,221 159,241" fill="#1976d2"/>

  <!-- TOP — yellow tiles -->
  <polygon points="82,133 113,115 148,133 113,149" fill="#f9a825"/><polygon points="84,134 111,117 146,134 111,148" fill="#fbc02d"/>
  <polygon points="122,112 153,94 188,112 153,129" fill="#f9a825"/><polygon points="124,113 151,96 186,113 151,128" fill="#fbc02d"/>
  <polygon points="162,91 193,73 228,91 193,108" fill="#f9a825"/><polygon points="164,92 191,75 226,92 191,107" fill="#fbc02d"/>
  <polygon points="82,153 113,135 148,153 113,169" fill="#f9a825"/><polygon points="84,154 111,137 146,154 111,168" fill="#fbc02d"/>
  <polygon points="122,132 153,114 188,132 153,149" fill="#f9a825"/><polygon points="124,133 151,116 186,133 151,148" fill="#fbc02d"/>
  <polygon points="162,111 193,93 228,111 193,128" fill="#f9a825"/><polygon points="164,112 191,95 226,112 191,127" fill="#fbc02d"/>
  <polygon points="82,173 113,155 148,173 113,189" fill="#f9a825"/><polygon points="84,174 111,157 146,174 111,188" fill="#fbc02d"/>
  <polygon points="122,152 153,134 188,152 153,169" fill="#f9a825"/><polygon points="124,153 151,136 186,153 151,168" fill="#fbc02d"/>
  <polygon points="162,131 193,113 228,131 193,148" fill="#f9a825"/><polygon points="164,132 191,115 226,132 191,147" fill="#fbc02d"/>

  <!-- RIGHT — red tiles -->
  <polygon points="207,80 243,100 243,140 207,120" fill="#b71c1c"/><polygon points="209,82 241,102 241,137 209,117" fill="#c62828"/>
  <polygon points="252,102 288,122 288,162 252,142" fill="#b71c1c"/><polygon points="254,104 286,124 286,159 254,139" fill="#c62828"/>
  <polygon points="297,124 333,144 333,184 297,164" fill="#b71c1c"/><polygon points="299,126 331,146 331,181 299,161" fill="#c62828"/>
  <polygon points="207,132 243,152 243,192 207,172" fill="#b71c1c"/><polygon points="209,134 241,154 241,189 209,169" fill="#c62828"/>
  <polygon points="252,154 288,174 288,214 252,194" fill="#b71c1c"/><polygon points="254,156 286,176 286,211 254,191" fill="#c62828"/>
  <polygon points="297,176 333,196 333,236 297,216" fill="#b71c1c"/><polygon points="299,178 331,198 331,233 299,213" fill="#c62828"/>
  <polygon points="207,184 243,204 243,244 207,224" fill="#b71c1c"/><polygon points="209,186 241,206 241,241 209,221" fill="#c62828"/>
  <polygon points="252,206 288,226 288,266 252,246" fill="#b71c1c"/><polygon points="254,208 286,228 286,263 254,243" fill="#c62828"/>
  <polygon points="297,228 333,248 333,288 297,268" fill="#b71c1c"/><polygon points="299,230 331,250 331,285 299,265" fill="#c62828"/>

  <!-- Grid lines -->
  <line x1="105" y1="122" x2="105" y2="272" stroke="#000" stroke-width="3"/>
  <line x1="150" y1="100" x2="150" y2="250" stroke="#000" stroke-width="3"/>
  <line x1="65" y1="192" x2="195" y2="130" stroke="#000" stroke-width="3"/>
  <line x1="65" y1="244" x2="195" y2="182" stroke="#000" stroke-width="3"/>
  <line x1="245" y1="98" x2="245" y2="247" stroke="#000" stroke-width="3"/>
  <line x1="290" y1="120" x2="290" y2="269" stroke="#000" stroke-width="3"/>
  <line x1="205" y1="175" x2="335" y2="194" stroke="#000" stroke-width="3"/>
  <line x1="205" y1="227" x2="335" y2="246" stroke="#000" stroke-width="3"/>

  <!-- GAN logo badge -->
  <rect x="168" y="188" width="36" height="14" rx="3" fill="#ffffff" opacity="0.9"/>
  <text x="186" y="199" text-anchor="middle" font-family="Arial,sans-serif" font-size="9" fill="#212121" font-weight="bold">GAN</text>

  <text x="200" y="382" text-anchor="middle" font-family="Inter,Arial,sans-serif" font-size="14" fill="#666" font-weight="600">3×3 Competition Cube</text>
</svg>
